<svg width="25" height="31" viewBox="0 0 25 31" fill="none" xmlns="http://www.w3.org/2000/svg">
<path d="M18.3754 10.2853C17.7209 10.2336 17.0179 10.3915 15.9412 10.8067C16.0326 10.7717 14.9144 11.2121 14.6017 11.3239C13.907 11.5685 13.3354 11.7027 12.6947 11.7027C12.0609 11.7027 11.4769 11.5741 10.8043 11.3462C10.5898 11.2722 10.374 11.1925 10.1055 11.0862C9.99201 11.0415 9.57685 10.8738 9.48552 10.8388C8.58877 10.4838 8.08366 10.3496 7.66435 10.3608C6.07014 10.3817 4.56035 11.3113 3.68436 12.8517C1.89641 15.9885 2.88588 21.6567 5.49999 25.4756C6.89216 27.4941 7.65328 28.2153 7.9605 28.2056C8.26772 28.1916 8.49329 28.1259 9.04406 27.8911L9.27517 27.7918C10.666 27.1921 11.6416 26.9279 13.1099 26.9279C14.5228 26.9279 15.4666 27.1879 16.802 27.7694L17.0345 27.8701C17.5853 28.1077 17.7845 28.1608 18.1305 28.1524C18.6259 28.1455 19.2362 27.5695 20.591 25.5609C20.9619 25.0143 21.2899 24.4384 21.5736 23.8555C21.3871 23.7004 21.2062 23.5386 21.0311 23.3704C19.2473 21.6539 18.1443 19.3391 18.1139 16.4791C18.0841 14.363 18.7727 12.3004 20.0651 10.6347C19.5227 10.4325 18.953 10.3146 18.3754 10.2853ZM18.5899 7.498C19.5697 7.5651 22.3762 7.86703 24.2029 10.5677C24.0534 10.6515 20.8484 12.5302 20.8816 16.4553C20.9314 21.1521 24.9502 22.7121 25 22.7288C24.9668 22.8463 24.3524 24.9598 22.8744 27.1404C21.5957 29.0359 20.2672 30.9146 18.1748 30.9481C16.1156 30.9984 15.4513 29.7236 13.1099 29.7236C10.7517 29.7236 10.0211 30.9146 8.07813 30.9984C6.05215 31.0655 4.52437 28.952 3.22907 27.0733C0.588664 23.2153 -1.4207 16.2037 1.28613 11.4567C2.63125 9.09153 5.02256 7.59865 7.62976 7.5651C9.60591 7.51477 11.4824 8.90702 12.6947 8.90702C13.8903 8.90702 16.0326 7.29671 18.5899 7.498ZM17.0123 4.94834C15.9329 6.25672 14.1727 7.27994 12.4622 7.14575C12.2297 5.3677 13.0932 3.50578 14.0896 2.34837C15.2023 1.03999 17.0622 0.0670962 18.6066 0C18.8058 1.8116 18.0918 3.63997 17.0123 4.94834Z" fill="#1C1C27"/>
</svg>
