<svg width="84" height="22" viewBox="0 0 84 22" fill="none" xmlns="http://www.w3.org/2000/svg">
<path d="M20.0249 19.675C19.4582 20.375 18.7666 20.9084 17.9499 21.275C17.1499 21.6417 16.2666 21.825 15.2999 21.825C13.9999 21.825 12.8249 21.5417 11.7749 20.975C10.7249 20.425 9.5249 19.4417 8.1749 18.025C6.59157 17.825 5.1749 17.3167 3.9249 16.5C2.69157 15.6834 1.7249 14.6334 1.0249 13.35C0.341569 12.05 -9.76361e-05 10.6167 -9.76361e-05 9.05005C-9.76361e-05 7.33338 0.408236 5.79172 1.2249 4.42505C2.05824 3.04171 3.1999 1.95838 4.6499 1.17505C6.11657 0.391715 7.75824 4.85182e-05 9.5749 4.85182e-05C11.3916 4.85182e-05 13.0249 0.391715 14.4749 1.17505C15.9249 1.95838 17.0666 3.04171 17.8999 4.42505C18.7332 5.79172 19.1499 7.33338 19.1499 9.05005C19.1499 11.0834 18.5749 12.8667 17.4249 14.4C16.2916 15.9334 14.7832 17 12.8999 17.6C13.3166 18.0334 13.7166 18.3417 14.0999 18.525C14.4999 18.725 14.9249 18.825 15.3749 18.825C16.4582 18.825 17.4082 18.3917 18.2249 17.525L20.0249 19.675ZM4.0999 9.05005C4.0999 10.1334 4.33324 11.1 4.7999 11.95C5.28324 12.8 5.94157 13.4667 6.7749 13.95C7.60824 14.4167 8.54157 14.65 9.5749 14.65C10.6082 14.65 11.5416 14.4167 12.3749 13.95C13.2082 13.4667 13.8582 12.8 14.3249 11.95C14.8082 11.1 15.0499 10.1334 15.0499 9.05005C15.0499 7.96671 14.8082 7.00005 14.3249 6.15005C13.8582 5.30005 13.2082 4.64172 12.3749 4.17505C11.5416 3.69172 10.6082 3.45005 9.5749 3.45005C8.54157 3.45005 7.60824 3.69172 6.7749 4.17505C5.94157 4.64172 5.28324 5.30005 4.7999 6.15005C4.33324 7.00005 4.0999 7.96671 4.0999 9.05005ZM29.7687 0.300048C31.3187 0.300048 32.6603 0.558381 33.7937 1.07505C34.9437 1.59172 35.827 2.32505 36.4437 3.27505C37.0603 4.22505 37.3687 5.35005 37.3687 6.65005C37.3687 7.93338 37.0603 9.05838 36.4437 10.025C35.827 10.975 34.9437 11.7084 33.7937 12.225C32.6603 12.725 31.3187 12.975 29.7687 12.975H26.2437V17.8H22.1937V0.300048H29.7687ZM29.5437 9.67505C30.7603 9.67505 31.6853 9.41672 32.3187 8.90005C32.952 8.36672 33.2687 7.61672 33.2687 6.65005C33.2687 5.66672 32.952 4.91672 32.3187 4.40005C31.6853 3.86672 30.7603 3.60005 29.5437 3.60005H26.2437V9.67505H29.5437ZM40.2601 0.300048H44.3101V17.8H40.2601V0.300048ZM56.8382 18.1C55.0549 18.1 53.4382 17.7167 51.9882 16.95C50.5549 16.1667 49.4215 15.0917 48.5882 13.725C47.7715 12.3417 47.3632 10.7834 47.3632 9.05005C47.3632 7.31671 47.7715 5.76671 48.5882 4.40005C49.4215 3.01672 50.5549 1.94172 51.9882 1.17505C53.4382 0.391715 55.0632 4.85182e-05 56.8632 4.85182e-05C58.3799 4.85182e-05 59.7465 0.266715 60.9632 0.800049C62.1965 1.33338 63.2299 2.10005 64.0632 3.10005L61.4632 5.50005C60.2799 4.13338 58.8132 3.45005 57.0632 3.45005C55.9799 3.45005 55.0132 3.69172 54.1632 4.17505C53.3132 4.64172 52.6465 5.30005 52.1632 6.15005C51.6965 7.00005 51.4632 7.96671 51.4632 9.05005C51.4632 10.1334 51.6965 11.1 52.1632 11.95C52.6465 12.8 53.3132 13.4667 54.1632 13.95C55.0132 14.4167 55.9799 14.65 57.0632 14.65C58.8132 14.65 60.2799 13.9584 61.4632 12.575L64.0632 14.975C63.2299 15.9917 62.1965 16.7667 60.9632 17.3C59.7299 17.8334 58.3549 18.1 56.8382 18.1ZM73.1731 10.925L70.8231 13.375V17.8H66.7981V0.300048H70.8231V8.47505L78.5731 0.300048H83.0731L75.8231 8.10005L83.4981 17.8H78.7731L73.1731 10.925Z" fill="#101010"/>
</svg>
